<?xml version="1.0" encoding="UTF-8"?>
<svg width="278px" height="75px" viewBox="0 0 278 75" version="1.1" xmlns="http://www.w3.org/2000/svg" xmlns:xlink="http://www.w3.org/1999/xlink">
    <!-- Generator: Sketch 52 (66869) - http://www.bohemiancoding.com/sketch -->
    <title>pasha-construction</title>
    <desc>Created with Sketch.</desc>
    <g id="Page-1" stroke="none" stroke-width="1" fill="none" fill-rule="evenodd">
        <g id="pasha-construction">
            <polygon id="Path" fill="#8B8D8E" points="0.42372757 37.4807266 15.4749391 22.3701124 30.5218764 37.4807266 27.130926 40.8847613 9.69261603 40.885509 9.69261603 46.7827869"></polygon>
            <polygon id="Path" fill="#007658" points="11.3176354 24.2355588 11.3176354 11.0765604 32.6042728 11.0765604 32.6019052 32.4417784 27.8032095 32.4424014 16.0486542 20.6407427 15.4741914 20.0621677"></polygon>
            <polygon id="Path" fill="#007658" points="11.3176354 63.8845813 24.4263403 63.8845813 20.8477237 60.2915097 20.2736348 59.7133086 32.6042728 47.3369379 32.6042728 42.5159365 11.3184329 42.5175565"></polygon>
            <polygon id="Path" fill="#8B8D8E" points="37.6226601 74.8234243 22.5734797 59.7140563 37.6226601 44.605062 41.0168504 48.0114643 41.0168504 65.5189965 46.8919473 65.5173765"></polygon>
            <polygon id="Path" fill="#007658" points="63.9262018 63.8850798 42.6415457 63.8844567 42.6437888 42.5180549 47.4441045 42.5180549 59.199532 54.3185922 59.7747425 54.8944257 60.348333 54.3185922 63.9273233 50.7246483"></polygon>
            <polygon id="Path" fill="#8B8D8E" points="74.8220536 37.4007255 59.7716272 52.510592 44.7212007 37.4023455 48.1125249 33.9990585 65.5535141 33.9995569 65.5535141 28.0964222"></polygon>
            <polygon id="Path" fill="#007658" points="63.9265757 11.0768595 63.9265757 32.4432737 42.6422934 32.4432737 42.6422934 27.6228954 54.3984687 15.8228567 54.972433 15.2454032 54.3984687 14.667202 50.8187306 11.0772583"></polygon>
            <polygon id="Path" fill="#8B8D8E" points="52.6727127 15.2459016 37.6249031 30.3514067 34.2300897 26.9446306 34.2277221 9.44260634 28.3541205 9.44496151 37.6241554 0.138907427"></polygon>
            <path d="M93.4492274,11.1237137 L85.1784587,11.1237137 L85.1784587,32.4657039 L90.3185922,32.4657039 L90.3185922,26.429234 L91.8844705,26.429234 C98.2303528,26.429234 101.659684,22.8958518 101.659684,18.7010274 C101.659684,13.9329863 98.2303528,11.1237137 93.4492274,11.1237137 Z M96.3945641,18.8222751 C96.3945641,20.8144523 95.253863,22.4755344 92.0645353,22.4755344 L90.3185922,22.4755344 L90.3185922,15.1411027 L92.7870375,15.1411027 C95.5248948,15.1411027 96.3945641,16.6800648 96.3945641,18.8222751 Z" id="Shape" fill="#007658"></path>
            <path d="M123.306837,31.2899867 L124.752714,27.6068204 C126.646821,28.2711287 128.028772,28.573812 130.373975,28.573812 C132.932266,28.573812 134.103622,27.7883806 134.103622,26.491291 C134.103622,23.0195918 123.998809,23.9548073 123.998809,16.7088502 C123.998809,12.6047436 127.880483,10.8225258 131.640037,10.8225258 C135.008307,10.8225258 136.63076,11.5474081 138.284365,12.2725271 L136.812694,15.8334487 C135.247563,15.3818537 133.952841,14.958421 131.790817,14.958421 C129.654962,14.958421 128.990779,15.773261 128.990779,16.6801894 C128.990779,19.5161165 139.278772,19.5161165 139.278772,26.3096062 C139.278772,30.9884249 134.82762,32.7992911 130.435035,32.7992911 C126.947137,32.7992911 124.901002,32.164516 123.306837,31.2899867 Z" id="Path" fill="#007658"></path>
            <polygon id="Path" fill="#007658" points="141.980367 11.1243243 147.09321 11.1243243 147.09321 19.7888929 155.455943 19.7888929 155.455943 11.1243243 160.570032 11.1243243 160.570032 32.466327 155.455943 32.466327 155.455943 23.6819063 147.09321 23.6819063 147.09321 32.466327 141.980367 32.466327"></polygon>
            <path d="M169.621871,11.1243243 L176.600161,11.1243243 L183.756646,32.466327 L178.464361,32.466327 L176.44938,26.2187638 L169.772652,26.2187638 L167.758917,32.466327 L162.465385,32.466327 L169.621871,11.1243243 Z M173.111016,14.2948604 L170.973914,22.5043199 L175.245625,22.5043199 L173.111016,14.2948604 Z" id="Shape" fill="#007658"></path>
            <path d="M108.11348,11.1243243 L115.092144,11.1243243 L122.251994,32.466327 L116.955223,32.466327 L114.941737,26.2187638 L108.262392,26.2187638 L106.248906,32.466327 L100.95363,32.466327 L108.11348,11.1243243 Z M111.602127,14.2948604 L109.466521,22.5043199 L113.737733,22.5043199 L111.602127,14.2948604 Z" id="Shape" fill="#007658"></path>
            <path d="M239.632809,45.3501191 L239.632809,40.8119877 L234.735545,40.7982804 L234.735545,45.3589665 L239.632809,45.3501191 Z M96.6556269,63.9513735 C99.3244489,63.9513735 101.054816,63.6275061 103.049236,62.8915457 L101.993396,59.12302 C100.409698,59.535113 99.2070641,59.7119379 97.1834847,59.7119379 C92.9895326,59.7119379 90.2326097,57.3859243 90.2326097,53.0286054 C90.2326097,48.6712866 92.8427393,46.5515064 96.5968099,46.6104481 C98.8845675,46.6398566 99.705638,46.8459653 101.670774,47.3759415 L102.990543,43.7547076 C101.436129,43.0480311 99.6176617,42.4592379 96.5382421,42.4592379 C89.4699823,42.4592379 85.1586453,46.5515064 85.1586453,53.3230644 C85.1586453,60.1535639 89.0593847,63.9513735 96.6556269,63.9513735 Z M112.72775,63.9503766 C117.654921,63.9503766 121.233039,61.0355699 121.233039,55.5596062 C121.233039,50.3190352 118.681477,47.1098942 112.991679,47.1098942 C107.917839,47.1098942 104.60365,50.3778522 104.60365,55.7067734 C104.60365,60.7412356 107.448549,63.9503766 112.72775,63.9503766 Z M109.530821,55.5890147 C109.530821,58.3565297 110.352016,60.0346838 112.962146,60.0346838 C115.601808,60.0346838 116.247051,58.2975881 116.247051,55.5596062 C116.247051,52.9687915 115.601808,50.9961786 112.903578,50.9961786 C110.263915,50.9961786 109.530821,52.9687915 109.530821,55.5890147 Z M124.16579,63.5971007 L129.0643,63.5971007 L129.0643,52.2032981 C129.855588,51.820489 131.175233,51.3494545 132.64192,51.3494545 C134.28431,51.3494545 134.782759,51.7322635 134.782759,53.9402692 L134.782759,63.5971007 L139.651362,63.5971007 L139.651362,53.5280516 C139.651362,49.8774092 139.299956,47.1098942 134.28431,47.1098942 C132.14347,47.1098942 130.031292,48.4053639 129.0643,49.1413242 L129.0643,47.5221118 L124.16579,47.5221118 L124.16579,63.5971007 Z M155.459681,58.6803971 C155.459681,62.9199574 151.030959,63.9503766 148.333103,63.9503766 C146.01656,63.9503766 144.138652,63.7442678 142.496262,63.2731087 L143.024618,59.5635246 C145.10689,59.8579835 146.777941,60.0051506 147.863314,60.0051506 C150.062722,60.0051506 150.620985,59.5341161 150.620985,58.8863813 C150.620985,58.2710456 149.607887,57.9770852 148.300703,57.5975161 C145.918116,56.9057931 142.554829,55.929331 142.554829,52.2032981 C142.554829,48.7291067 145.810949,47.1098942 149.30134,47.1098942 C151.26523,47.1098942 153.026002,47.4337616 154.697054,48.0226794 L153.875858,51.5850964 C152.321943,51.2316958 151.089527,50.9961786 149.447137,50.9961786 C148.098831,50.9961786 147.45334,51.378863 147.45334,51.9676562 C147.45334,52.6393166 148.536221,52.9960816 149.906956,53.4470536 C152.260883,54.221893 155.459681,55.2748671 155.459681,58.6803971 Z M165.108413,63.9795359 C166.282261,63.9795359 168.4231,63.685077 169.65427,63.2434509 L169.185728,59.3865751 C168.01188,59.6516255 166.809371,59.8577343 165.725244,59.8577343 C164.404353,59.8577343 163.965718,59.4749252 163.965718,58.2973388 L163.965718,51.1430965 L168.92155,51.1430965 L168.92155,47.5217379 L163.965718,47.5217379 L163.965718,44.2243714 L159.095868,44.2243714 L159.095868,47.5217379 L156.750665,47.5217379 L156.750665,51.1430965 L159.095868,51.1430965 L159.095868,58.5917977 C159.095868,62.6545331 161.266615,63.9795359 165.108413,63.9795359 Z M177.309205,63.5966022 L172.411941,63.5966022 L172.411941,47.5216133 L177.309205,47.5216133 L177.309205,49.6709266 C178.101739,48.6405073 179.597087,47.1977459 181.445088,47.1977459 C182.32485,47.1977459 182.970342,47.2566875 183.644495,47.4627963 L182.999003,51.4962478 C182.060672,51.3195475 181.737926,51.3195475 180.858163,51.3195475 C179.421383,51.3195475 177.954696,51.9966909 177.309205,52.7033673 L177.309205,63.5966022 Z M190.888209,63.9498782 C193.030295,63.9498782 195.141227,62.683817 196.109465,61.9478567 L196.109465,63.5966022 L201.006729,63.5966022 L201.006729,47.5216133 L196.109465,47.5216133 L196.109465,58.8858828 C195.316931,59.2686918 193.997286,59.6809094 192.531845,59.6809094 C190.888209,59.6809094 190.38976,59.2981004 190.38976,57.0900947 L190.38976,47.5216133 L185.521156,47.5216133 L185.521156,57.5023123 C185.521156,61.1529547 185.873809,63.9498782 190.888209,63.9498782 Z M217.320974,63.3956026 C215.780765,63.7375388 214.954586,63.9209681 213.266089,63.9209681 C206.492163,63.9209681 203.940103,61.4183789 203.940103,55.4124391 C203.940103,50.4072607 207.283451,47.1098942 212.709072,47.1098942 C215.055522,47.1098942 216.55087,47.5515203 217.813192,48.2286636 L216.55087,51.7910805 C215.261132,51.2906375 214.557072,51.1139372 212.914682,51.1139372 C210.890978,51.1139372 208.955749,52.0265978 208.955749,55.4712561 C208.955749,58.5626385 209.688469,60.0051506 213.530267,60.0051506 C214.685423,60.0051506 215.388237,59.8759277 216.393858,59.6911276 C216.563331,59.6598499 216.741526,59.6270769 216.932183,59.5930577 L217.607582,63.3321749 L217.320974,63.3956026 Z M227.432017,63.9795359 C228.605865,63.9795359 230.746705,63.685077 231.977874,63.2434509 L231.509332,59.3865751 C230.335484,59.6516255 229.134221,59.8577343 228.048848,59.8577343 C226.729204,59.8577343 226.289322,59.4749252 226.289322,58.2973388 L226.289322,51.1430965 L231.245154,51.1430965 L231.245154,47.5217379 L226.289322,47.5217379 L226.289322,44.2243714 L221.420719,44.2243714 L221.420719,47.5217379 L219.074269,47.5217379 L219.074269,51.1430965 L221.420719,51.1430965 L221.420719,58.5917977 C221.420719,62.6545331 223.590219,63.9795359 227.432017,63.9795359 Z M239.632809,63.5966022 L234.735545,63.5966022 L234.735545,47.5216133 L239.632809,47.5216133 L239.632809,63.5966022 Z M259.16579,55.5596062 C259.16579,61.0355699 255.58817,63.9503766 250.660999,63.9503766 C245.381175,63.9503766 242.536276,60.7412356 242.536276,55.7067734 C242.536276,50.3778522 245.850964,47.1098942 250.925177,47.1098942 C256.614976,47.1098942 259.16579,50.3190352 259.16579,55.5596062 Z M250.89527,60.0346838 C248.285888,60.0346838 247.464693,58.3565297 247.464693,55.5890147 C247.464693,52.9687915 248.197414,50.9961786 250.836702,50.9961786 C253.534559,50.9961786 254.180051,52.9687915 254.180051,55.5596062 C254.180051,58.2975881 253.534559,60.0346838 250.89527,60.0346838 Z M266.996428,63.5971007 L262.099164,63.5971007 L262.099164,47.5221118 L266.996428,47.5221118 L266.996428,49.1413242 C267.964665,48.4053639 270.076844,47.1098942 272.217684,47.1098942 C277.23333,47.1098942 277.584736,49.8774092 277.584736,53.5280516 L277.584736,63.5971007 L272.716133,63.5971007 L272.716133,53.9402692 C272.716133,51.7322635 272.217684,51.3494545 270.575294,51.3494545 C269.108607,51.3494545 267.788962,51.820489 266.996428,52.2032981 L266.996428,63.5971007 Z" id="Shape" fill="#8B8D8E"></path>
        </g>
    </g>
</svg>